<svg xmlns="http://www.w3.org/2000/svg" viewBox="0 0 1280 1280" width="512" height="512">
  <style>.wing{fill:#2b2b2b}@media (prefers-color-scheme:dark){.wing{fill:#e8eaed}}</style>
  <g transform="translate(0,224)">
    <g transform="translate(0,832) scale(0.1,-0.1)">
      <path d="M4694 5323 c-9 -32 -17 -73 -18 -92 -1 -39 -3 -38 129 -97 44 -19
132 -60 195 -89 643 -298 600 -279 600 -260 0 8 -5 15 -11 15 -6 0 -17 6 -24
13 -8 6 -43 31 -77 55 -35 23 -135 92 -223 153 -266 183 -532 359 -543 359 -6
0 -18 -26 -28 -57z M8005 5338 c-57 -40 -192 -132 -590 -403 -196 -133 -222
-152 -214 -159 2 -3 59 20 124 51 66 30 172 79 235 108 245 113 397 183 451
208 31 15 60 27 65 27 5 0 21 10 36 23 l26 22 -26 79 c-15 44 -31 81 -37 83
-5 1 -37 -16 -70 -39z M3804 4663 c0 -10 15 -38 31 -63 17 -25 64 -100 104
-167 40 -67 81 -129 90 -138 16 -14 28 -14 127 0 205 28 369 58 382 70 12 11
10 29 -8 111 -13 55 -27 106 -31 115 -9 18 -88 31 -347 54 -85 8 -176 17 -203
20 -156 16 -146 16 -145 -2z M8770 4660 c-96 -10 -231 -24 -300 -31 -69 -7
-135 -16 -146 -20 -18 -6 -26 -28 -48 -120 -22 -92 -25 -114 -14 -124 17 -15
477 -88 500 -80 9 4 60 77 112 163 53 87 104 170 115 186 35 53 41 52 -219 26z
M4636 4602 c-9 -16 22 -194 37 -209 12 -12 35 -11 173 7 371 49 814 120 814
131 0 11 -41 16 -250 28 -102 6 -275 17 -385 25 -348 26 -383 27 -389 18z
M8025 4603 c-38 -2 -155 -10 -260 -18 -104 -8 -275 -20 -380 -26 -104 -6 -201
-16 -215 -22 -23 -9 -19 -12 45 -24 86 -16 685 -107 814 -123 59 -8 97 -8 103
-2 12 12 41 190 34 208 -3 9 -18 13 -38 12 -18 -1 -64 -3 -103 -5z M5757 4043
c-59 -72 -139 -171 -250 -312 -68 -87 -91 -115 -212 -271 l-66 -85 28 -22 c39
-32 134 -65 174 -61 29 3 37 10 57 48 26 52 122 264 162 360 33 77 116 266
130 295 5 11 11 27 12 35 2 8 7 18 12 21 8 6 18 59 11 59 -1 0 -28 -30 -58
-67z M6976 4101 c-3 -4 8 -35 24 -67 31 -64 112 -244 240 -534 45 -102 89
-191 98 -198 10 -8 33 -12 57 -9 49 5 159 58 163 78 1 8 -22 46 -52 84 -30 39
-133 169 -228 291 -95 121 -198 252 -228 292 -55 71 -64 79 -74 63z M7704
3644 c-4 -20 -4 -82 -2 -139 l5 -103 56 -83 c63 -95 91 -135 160 -232 26 -37
46 -71 42 -76 -3 -5 0 -13 6 -17 8 -5 10 -2 5 7 -4 8 2 3 13 -11 11 -14 21
-30 21 -36 0 -6 11 -20 25 -30 14 -10 25 -24 25 -31 0 -28 40 -12 63 25 64
100 169 320 163 338 -4 10 -36 39 -73 64 -36 24 -162 115 -279 202 -118 87
-216 158 -218 158 -3 0 -8 -16 -12 -36z M5005 3620 c-63 -46 -140 -101 -215
-155 -16 -11 -81 -58 -147 -105 -65 -46 -121 -89 -125 -95 -10 -14 -3 -37 42
-130 65 -138 135 -250 156 -252 12 -1 32 14 54 40 19 23 26 35 15 27 -15 -11
-14 -7 5 15 37 45 44 52 35 36 -5 -10 -4 -12 4 -7 6 4 9 11 7 15 -6 9 23 53
146 228 106 150 104 145 111 218 6 64 -2 215 -12 215 -3 0 -37 -23 -76 -50z" fill="#cf6a1f"/>
      <path d="M5618 6134 c-56 -30 -64 -90 -19 -135 26 -26 35 -28 90 -26 l61 2 0
53 c0 66 -12 90 -55 108 -42 17 -43 17 -77 -2z M7092 6125 c-27 -22 -32 -34
-32 -69 0 -23 -4 -46 -10 -52 -15 -15 5 -40 22 -26 9 7 19 8 28 2 51 -33 130
14 130 76 0 41 -34 82 -76 90 -24 4 -37 0 -62 -21z M8959 6072 c-312 -165
-408 -217 -434 -232 -16 -10 -115 -63 -220 -118 -104 -55 -275 -146 -380 -202
-104 -56 -311 -168 -460 -247 -148 -80 -304 -163 -345 -185 -106 -57 -199
-120 -239 -162 -19 -20 -38 -36 -42 -36 -3 0 -12 20 -19 45 -7 25 -28 67 -46
93 -32 45 -34 51 -34 135 0 109 -14 144 -82 207 l-53 49 17 29 c17 28 17 31 1
43 -11 10 -17 10 -20 3 -2 -6 -10 -20 -18 -30 -15 -21 -5 -25 -108 39 -60 38
-92 38 -152 1 -106 -66 -94 -62 -116 -31 -12 15 -25 27 -30 27 -13 0 -11 -37
3 -60 12 -18 8 -25 -35 -67 -70 -68 -80 -92 -85 -208 -4 -94 -6 -102 -37 -142
-18 -23 -38 -63 -44 -88 -6 -25 -14 -45 -17 -45 -3 0 -31 22 -62 48 -83 71
-82 71 -512 304 -455 248 -714 386 -1245 667 -148 79 -284 152 -301 162 -17
10 -43 19 -58 19 -15 0 -186 -62 -379 -139 -194 -76 -362 -142 -374 -145 -13
-4 -23 -15 -23 -26 0 -22 198 -441 314 -665 90 -174 211 -379 406 -688 169
-268 182 -284 260 -324 147 -76 481 -232 509 -238 25 -5 84 16 313 113 257
108 473 199 813 340 158 66 223 88 231 80 9 -10 -25 -61 -62 -92 -66 -55 -409
-219 -859 -413 -191 -82 -300 -134 -320 -153 -39 -38 -225 -404 -232 -456 -4
-35 3 -56 60 -165 149 -286 207 -381 250 -408 54 -33 388 -197 459 -225 36
-14 74 -26 83 -26 45 0 478 202 512 239 51 55 118 417 163 871 20 206 43 551
40 599 -3 42 -1 45 21 25 51 -46 49 -19 49 -847 0 -426 3 -796 7 -823 5 -41
30 -84 161 -279 163 -244 199 -289 223 -280 14 5 277 382 334 479 l30 51 5
820 5 820 30 37 c17 21 33 38 36 38 3 0 9 -84 12 -187 16 -461 104 -1134 169
-1285 21 -49 23 -50 152 -112 175 -85 337 -155 373 -162 40 -8 120 25 365 148
148 74 205 108 225 133 30 38 143 239 224 400 42 82 50 107 46 138 -7 49 -190
417 -228 455 -19 20 -100 60 -246 122 -462 197 -831 371 -909 428 -47 34 -100
99 -90 109 8 9 109 -27 266 -93 566 -238 1066 -444 1080 -444 18 0 142 56 372
169 233 114 232 113 337 283 330 528 404 653 521 888 121 240 280 571 280 582
0 10 14 4 -315 134 -148 58 -314 123 -368 145 -53 21 -99 39 -101 39 -2 0 -28
-13 -57 -28z m-5109 -120 c53 -27 343 -189 655 -365 90 -50 149 -90 148 -98
-1 -8 -21 -65 -44 -127 -33 -87 -46 -112 -58 -108 -9 2 -54 20 -101 40 -102
42 -925 369 -1060 420 -132 51 -140 54 -140 64 0 5 96 44 213 87 116 44 230
87 252 97 54 24 71 22 135 -10z m5391 -48 c112 -42 230 -85 262 -96 48 -17 56
-23 45 -33 -12 -11 -157 -69 -928 -372 -118 -47 -252 -101 -298 -120 -47 -20
-87 -32 -91 -27 -9 10 -81 218 -81 233 0 10 170 112 390 234 74 41 191 106
260 144 170 96 202 112 221 113 9 0 108 -34 220 -76z m-6019 -254 c21 -8 305
-117 583 -223 l110 -42 113 -115 c125 -127 207 -219 201 -224 -2 -2 -58 7
-124 21 -111 22 -653 136 -701 148 -16 3 -42 48 -104 172 -120 242 -133 273
-115 273 8 0 24 -4 37 -10z m6399 -13 c-22 -56 -200 -404 -213 -413 -14 -11
-43 -17 -498 -113 -271 -57 -313 -65 -334 -62 -10 1 49 66 207 228 l100 102
166 65 c626 245 587 232 572 193z m-4721 -288 c80 -56 255 -181 390 -278 135
-96 295 -209 355 -252 117 -82 205 -155 205 -170 0 -5 -64 23 -142 62 -78 39
-181 88 -228 109 -47 21 -184 84 -305 140 -368 171 -454 210 -462 210 -4 0
-18 8 -30 18 l-22 17 20 75 c11 41 25 93 31 115 16 64 18 67 31 62 6 -2 77
-51 157 -108z m3183 65 c5 -21 20 -74 34 -117 14 -43 23 -83 20 -90 -5 -14 -6
-14 -162 -85 -60 -28 -173 -79 -250 -115 -77 -35 -225 -104 -330 -151 -104
-48 -243 -115 -308 -148 -64 -33 -122 -58 -128 -56 -16 5 47 59 186 158 65 47
171 123 236 170 65 47 204 146 309 220 106 74 231 163 279 197 47 34 90 61 96
59 5 -1 13 -20 18 -42z m-3747 -149 c281 -116 598 -255 964 -425 85 -40 198
-91 250 -115 150 -67 252 -117 248 -120 -4 -4 4 -5 -473 80 -203 36 -459 83
-568 104 -232 45 -196 23 -391 249 -219 256 -262 312 -242 312 2 0 97 -38 212
-85z m4340 70 c-7 -18 -362 -439 -403 -478 -34 -32 -116 -51 -464 -112 -234
-40 -403 -70 -643 -115 -160 -29 -208 -33 -155 -11 23 10 325 146 809 366 280
127 831 362 854 364 4 1 6 -6 2 -14z m-4776 -565 c80 -6 219 -17 310 -25 91
-8 219 -20 285 -25 498 -44 1288 -150 1346 -180 31 -17 21 -52 -22 -73 -38
-18 -254 -56 -864 -151 -88 -14 -257 -39 -375 -56 -118 -17 -275 -40 -349 -51
-74 -11 -157 -19 -185 -17 l-51 3 -88 145 c-209 345 -257 427 -257 439 0 9 14
11 53 7 28 -4 117 -11 197 -16z m5250 4 c0 -9 -27 -59 -59 -112 -33 -54 -109
-178 -169 -277 -66 -109 -119 -185 -134 -192 -26 -13 -131 -1 -533 61 -121 19
-341 53 -490 76 -405 62 -737 118 -773 131 -36 12 -55 39 -46 63 10 26 39 32
404 85 357 52 949 113 1520 156 113 9 210 18 215 20 28 10 65 4 65 -11z
m-3376 -617 c-143 -167 -292 -349 -594 -727 -334 -418 -459 -570 -468 -570 -4
0 -40 59 -80 130 -74 130 -121 231 -122 261 0 10 48 52 116 100 64 46 138 100
164 119 26 19 100 72 163 117 63 46 120 89 126 97 7 8 94 75 193 148 99 73
270 202 381 285 110 84 203 151 205 148 2 -2 -36 -51 -84 -108z m1289 26 c62
-49 213 -162 336 -253 123 -91 247 -184 275 -207 49 -41 365 -275 534 -396 62
-45 82 -65 82 -82 0 -33 -186 -385 -204 -385 -4 0 -176 207 -311 375 -66 83
-222 275 -345 429 -124 153 -258 319 -298 369 -40 49 -100 120 -132 157 -56
63 -68 80 -55 80 2 0 55 -39 118 -87z m-1133 51 c0 -67 -284 -758 -548 -1334
-122 -267 -139 -300 -159 -300 -40 0 -342 137 -393 178 -21 17 -23 23 -12 46
13 29 349 490 387 530 13 15 52 63 87 109 34 45 114 147 178 226 63 79 149
187 190 240 41 53 99 126 129 161 30 36 70 86 89 113 35 48 52 59 52 31z
m1045 -96 c44 -55 116 -147 160 -203 202 -260 366 -468 441 -560 129 -157 414
-547 414 -566 0 -10 -12 -26 -27 -37 -69 -48 -343 -172 -382 -172 -16 0 -30
17 -55 69 -59 116 -315 691 -406 911 -28 69 -78 188 -110 265 -74 176 -128
321 -136 363 -11 56 16 37 101 -70z m-448 -884 c2 -524 0 -674 -10 -694 -15
-30 -82 -70 -118 -70 -14 0 -46 13 -72 30 l-47 30 0 685 c0 542 3 685 13 685
6 0 34 -16 61 -35 l48 -34 52 39 c28 21 56 38 61 36 7 -2 11 -236 12 -672z
M5774 5959 c-10 -17 13 -36 27 -22 12 12 4 33 -11 33 -5 0 -12 -5 -16 -11z
M6994 5959 c-10 -17 13 -36 27 -22 12 12 4 33 -11 33 -5 0 -12 -5 -16 -11z
M6941 5916 c-9 -10 -9 -16 -1 -21 17 -10 37 12 24 25 -8 8 -15 6 -23 -4z
M5830 5905 c0 -8 7 -15 15 -15 8 0 15 7 15 15 0 8 -7 15 -15 15 -8 0 -15 -7
-15 -15z M5883 5865 c-3 -9 -3 -18 0 -21 9 -9 27 6 27 22 0 19 -19 18 -27 -1z
M6884 5869 c-3 -6 -2 -15 4 -21 13 -13 32 -2 32 18 0 16 -26 19 -36 3z M5937
5823 c-4 -3 -7 -12 -7 -20 0 -15 26 -18 34 -4 7 11 -18 33 -27 24z M6835 5820
c-8 -14 3 -30 21 -30 8 0 14 9 14 20 0 21 -24 28 -35 10z M5980 5755 c0 -8 7
-15 15 -15 8 0 15 7 15 15 0 8 -7 15 -15 15 -8 0 -15 -7 -15 -15z M6786 5761
c-7 -11 18 -33 27 -24 4 3 7 12 7 20 0 15 -26 18 -34 4z M6024 5709 c-10 -17
13 -36 27 -22 12 12 4 33 -11 33 -5 0 -12 -5 -16 -11z M6740 5710 c-11 -7 -12
-12 -3 -21 14 -14 46 -4 41 13 -6 16 -20 19 -38 8z M6073 5644 c-8 -21 13 -42
28 -27 13 13 5 43 -11 43 -6 0 -13 -7 -17 -16z M6686 5633 c-4 -9 -2 -21 3
-26 14 -14 42 10 34 29 -7 19 -29 18 -37 -3z M6126 5571 c-9 -14 5 -42 18 -38
15 5 14 39 -1 44 -6 2 -14 0 -17 -6z M6635 5560 c-8 -14 3 -30 21 -30 8 0 14
9 14 20 0 21 -24 28 -35 10z" class="wing"/>
    </g>
  </g>
</svg>
